<?xml version="1.0" encoding="iso-8859-1"?>
<!-- Uploaded to: SVG Repo, www.svgrepo.com, Generator: SVG Repo Mixer Tools -->
<svg fill="currentColor" version="1.1" id="Layer_1" xmlns="http://www.w3.org/2000/svg" xmlns:xlink="http://www.w3.org/1999/xlink"
	 viewBox="0 0 512 512" xml:space="preserve">
<g>
	<g>
		<path d="M258.148,512h149.803l-19.555-208.759l12.089-232.967L400.509,0H111.491v69.844l12.111,233.399L104.048,512h149.803
			l-13.519-208.951v-96.42h31.334v96.42L258.148,512z M144.883,33.391h222.235v19.324H144.883V33.391z M366.229,86.106
			l-1.213,23.368c-10.015-4.718-17.982-13.079-22.189-23.368H366.229z M168.843,86.106c-4.185,10.08-12.036,18.262-21.884,22.88
			l-1.188-22.88H168.843z M206.941,173.237v0.001v130.891l11.289,174.48h-77.516l16.362-174.672l-8.312-160.174
			c27.405-7.487,48.761-29.745,54.951-57.657h35.733v37.344h33.391V86.106h35.144c6.189,28.123,27.655,50.567,55.227,58.165
			l-8.285,159.666l16.361,174.671h-77.517l11.254-173.942l0.034-131.429H206.941z"/>
	</g>
</g>
</svg>
